<svg width="48" height="18" viewBox="0 0 48 18" fill="none" xmlns="http://www.w3.org/2000/svg">
<rect width="48" height="18" rx="6" fill="#DDF6D7"/>
<path d="M14.804 10.588C14.804 11.004 14.696 11.396 14.48 11.764C14.272 12.124 13.96 12.424 13.544 12.664C13.136 12.896 12.652 13.032 12.092 13.072V14.044H11.324V13.06C10.524 12.988 9.88 12.748 9.392 12.34C8.904 11.924 8.652 11.364 8.636 10.66H10.436C10.484 11.236 10.78 11.584 11.324 11.704V9.412C10.748 9.268 10.284 9.124 9.932 8.98C9.58 8.836 9.276 8.604 9.02 8.284C8.764 7.964 8.636 7.528 8.636 6.976C8.636 6.28 8.884 5.712 9.38 5.272C9.884 4.832 10.532 4.58 11.324 4.516V3.544H12.092V4.516C12.86 4.58 13.472 4.812 13.928 5.212C14.392 5.612 14.652 6.164 14.708 6.868H12.896C12.872 6.636 12.788 6.436 12.644 6.268C12.508 6.092 12.324 5.968 12.092 5.896V8.164C12.692 8.316 13.164 8.464 13.508 8.608C13.86 8.744 14.164 8.972 14.42 9.292C14.676 9.604 14.804 10.036 14.804 10.588ZM10.388 6.892C10.388 7.156 10.468 7.372 10.628 7.54C10.788 7.7 11.02 7.832 11.324 7.936V5.86C11.036 5.9 10.808 6.008 10.64 6.184C10.472 6.36 10.388 6.596 10.388 6.892ZM12.092 11.728C12.396 11.672 12.632 11.548 12.8 11.356C12.976 11.164 13.064 10.932 13.064 10.66C13.064 10.396 12.98 10.184 12.812 10.024C12.644 9.864 12.404 9.732 12.092 9.628V11.728ZM22.6556 10.588C22.6556 11.004 22.5476 11.396 22.3316 11.764C22.1236 12.124 21.8116 12.424 21.3956 12.664C20.9876 12.896 20.5036 13.032 19.9436 13.072V14.044H19.1756V13.06C18.3756 12.988 17.7316 12.748 17.2436 12.34C16.7556 11.924 16.5036 11.364 16.4876 10.66H18.2876C18.3356 11.236 18.6316 11.584 19.1756 11.704V9.412C18.5996 9.268 18.1356 9.124 17.7836 8.98C17.4316 8.836 17.1276 8.604 16.8716 8.284C16.6156 7.964 16.4876 7.528 16.4876 6.976C16.4876 6.28 16.7356 5.712 17.2316 5.272C17.7356 4.832 18.3836 4.58 19.1756 4.516V3.544H19.9436V4.516C20.7116 4.58 21.3236 4.812 21.7796 5.212C22.2436 5.612 22.5036 6.164 22.5596 6.868H20.7476C20.7236 6.636 20.6396 6.436 20.4956 6.268C20.3596 6.092 20.1756 5.968 19.9436 5.896V8.164C20.5436 8.316 21.0156 8.464 21.3596 8.608C21.7116 8.744 22.0156 8.972 22.2716 9.292C22.5276 9.604 22.6556 10.036 22.6556 10.588ZM18.2396 6.892C18.2396 7.156 18.3196 7.372 18.4796 7.54C18.6396 7.7 18.8716 7.832 19.1756 7.936V5.86C18.8876 5.9 18.6596 6.008 18.4916 6.184C18.3236 6.36 18.2396 6.596 18.2396 6.892ZM19.9436 11.728C20.2476 11.672 20.4836 11.548 20.6516 11.356C20.8276 11.164 20.9156 10.932 20.9156 10.66C20.9156 10.396 20.8316 10.184 20.6636 10.024C20.4956 9.864 20.2556 9.732 19.9436 9.628V11.728Z" fill="#1C8E00"/>
<path d="M30.5071 10.588C30.5071 11.004 30.3991 11.396 30.1831 11.764C29.9751 12.124 29.6631 12.424 29.2471 12.664C28.8391 12.896 28.3551 13.032 27.7951 13.072V14.044H27.0271V13.06C26.2271 12.988 25.5831 12.748 25.0951 12.34C24.6071 11.924 24.3551 11.364 24.3391 10.66H26.1391C26.1871 11.236 26.4831 11.584 27.0271 11.704V9.412C26.4511 9.268 25.9871 9.124 25.6351 8.98C25.2831 8.836 24.9791 8.604 24.7231 8.284C24.4671 7.964 24.3391 7.528 24.3391 6.976C24.3391 6.28 24.5871 5.712 25.0831 5.272C25.5871 4.832 26.2351 4.58 27.0271 4.516V3.544H27.7951V4.516C28.5631 4.58 29.1751 4.812 29.6311 5.212C30.0951 5.612 30.3551 6.164 30.4111 6.868H28.5991C28.5751 6.636 28.4911 6.436 28.3471 6.268C28.2111 6.092 28.0271 5.968 27.7951 5.896V8.164C28.3951 8.316 28.8671 8.464 29.2111 8.608C29.5631 8.744 29.8671 8.972 30.1231 9.292C30.3791 9.604 30.5071 10.036 30.5071 10.588ZM26.0911 6.892C26.0911 7.156 26.1711 7.372 26.3311 7.54C26.4911 7.7 26.7231 7.832 27.0271 7.936V5.86C26.7391 5.9 26.5111 6.008 26.3431 6.184C26.1751 6.36 26.0911 6.596 26.0911 6.892ZM27.7951 11.728C28.0991 11.672 28.3351 11.548 28.5031 11.356C28.6791 11.164 28.7671 10.932 28.7671 10.66C28.7671 10.396 28.6831 10.184 28.5151 10.024C28.3471 9.864 28.1071 9.732 27.7951 9.628V11.728ZM38.3587 10.588C38.3587 11.004 38.2507 11.396 38.0347 11.764C37.8267 12.124 37.5147 12.424 37.0987 12.664C36.6907 12.896 36.2067 13.032 35.6467 13.072V14.044H34.8787V13.06C34.0787 12.988 33.4347 12.748 32.9467 12.34C32.4587 11.924 32.2067 11.364 32.1907 10.66H33.9907C34.0387 11.236 34.3347 11.584 34.8787 11.704V9.412C34.3027 9.268 33.8387 9.124 33.4867 8.98C33.1347 8.836 32.8307 8.604 32.5747 8.284C32.3187 7.964 32.1907 7.528 32.1907 6.976C32.1907 6.28 32.4387 5.712 32.9347 5.272C33.4387 4.832 34.0867 4.58 34.8787 4.516V3.544H35.6467V4.516C36.4147 4.58 37.0267 4.812 37.4827 5.212C37.9467 5.612 38.2067 6.164 38.2627 6.868H36.4507C36.4267 6.636 36.3427 6.436 36.1987 6.268C36.0627 6.092 35.8787 5.968 35.6467 5.896V8.164C36.2467 8.316 36.7187 8.464 37.0627 8.608C37.4147 8.744 37.7187 8.972 37.9747 9.292C38.2307 9.604 38.3587 10.036 38.3587 10.588ZM33.9427 6.892C33.9427 7.156 34.0227 7.372 34.1827 7.54C34.3427 7.7 34.5747 7.832 34.8787 7.936V5.86C34.5907 5.9 34.3627 6.008 34.1947 6.184C34.0267 6.36 33.9427 6.596 33.9427 6.892ZM35.6467 11.728C35.9507 11.672 36.1867 11.548 36.3547 11.356C36.5307 11.164 36.6187 10.932 36.6187 10.66C36.6187 10.396 36.5347 10.184 36.3667 10.024C36.1987 9.864 35.9587 9.732 35.6467 9.628V11.728Z" fill="#BBEFAD"/>
</svg>
